<svg xmlns="http://www.w3.org/2000/svg" width="21.712" height="21.207" viewBox="0 0 21.712 21.207">
  <g id="calendar-icon-news" transform="translate(-1.25 -1.75)">
    <path id="Path_224" data-name="Path 224" d="M17.01,14.02A1.01,1.01,0,1,0,16,13.01,1.01,1.01,0,0,0,17.01,14.02Z" transform="translate(0.146 0.101)" fill="#b9d881"/>
    <path id="Path_225" data-name="Path 225" d="M17.01,18.02A1.01,1.01,0,1,0,16,17.01,1.01,1.01,0,0,0,17.01,18.02Z" transform="translate(0.146 0.141)" fill="#b9d881"/>
    <path id="Path_226" data-name="Path 226" d="M13.02,13.01A1.01,1.01,0,1,1,12.01,12,1.01,1.01,0,0,1,13.02,13.01Z" transform="translate(0.096 0.101)" fill="#b9d881"/>
    <path id="Path_227" data-name="Path 227" d="M13.02,17.01A1.01,1.01,0,1,1,12.01,16,1.01,1.01,0,0,1,13.02,17.01Z" transform="translate(0.096 0.141)" fill="#b9d881"/>
    <path id="Path_228" data-name="Path 228" d="M7.01,14.02A1.01,1.01,0,1,0,6,13.01,1.01,1.01,0,0,0,7.01,14.02Z" transform="translate(0.047 0.101)" fill="#b9d881"/>
    <path id="Path_229" data-name="Path 229" d="M7.01,18.02A1.01,1.01,0,1,0,6,17.01,1.01,1.01,0,0,0,7.01,18.02Z" transform="translate(0.047 0.141)" fill="#b9d881"/>
    <path id="Path_230" data-name="Path 230" d="M7.057,1.75a.757.757,0,0,1,.757.757v.77c.669-.013,1.405-.013,2.215-.013h4.154c.81,0,1.547,0,2.215.013v-.77a.757.757,0,1,1,1.515,0v.835q.394.03.746.077a4.758,4.758,0,0,1,2.9,1.25,4.758,4.758,0,0,1,1.25,2.9,36.906,36.906,0,0,1,.155,4.476v2.134a36.908,36.908,0,0,1-.155,4.476,4.758,4.758,0,0,1-1.25,2.9,4.758,4.758,0,0,1-2.9,1.25,36.906,36.906,0,0,1-4.476.155H10.029A36.907,36.907,0,0,1,5.553,22.8a4.758,4.758,0,0,1-2.9-1.25,4.758,4.758,0,0,1-1.25-2.9,36.887,36.887,0,0,1-.155-4.476V12.044A36.887,36.887,0,0,1,1.4,7.568a4.757,4.757,0,0,1,1.25-2.9,4.757,4.757,0,0,1,2.9-1.25q.353-.047.746-.077V2.507A.757.757,0,0,1,7.057,1.75Zm-1.3,3.171a3.279,3.279,0,0,0-2.029.82,3.279,3.279,0,0,0-.82,2.029c-.023.172-.042.353-.059.544H21.365c-.016-.191-.036-.372-.059-.544a3.279,3.279,0,0,0-.82-2.029,3.279,3.279,0,0,0-2.029-.82,36.349,36.349,0,0,0-4.332-.141h-4.04A36.348,36.348,0,0,0,5.755,4.921ZM2.765,12.1c0-.862,0-1.613.013-2.272H21.434c.013.659.013,1.41.013,2.272v2.02a36.341,36.341,0,0,1-.141,4.332,3.279,3.279,0,0,1-.82,2.029,3.279,3.279,0,0,1-2.029.82,36.341,36.341,0,0,1-4.332.141h-4.04A36.34,36.34,0,0,1,5.755,21.3a3.279,3.279,0,0,1-2.029-.82,3.279,3.279,0,0,1-.82-2.029,36.349,36.349,0,0,1-.141-4.332Z" transform="translate(0 0)" fill="#b9d881" fill-rule="evenodd"/>
  </g>
</svg>
