<svg id="globe_earth_2" data-name="globe earth 2" xmlns="http://www.w3.org/2000/svg" width="40.335" height="40.335" viewBox="0 0 40.335 40.335">
  <path id="Path_37" data-name="Path 37" d="M36.251,21.126A15.126,15.126,0,1,1,21.126,6,15.127,15.127,0,0,1,36.251,21.126Z" transform="translate(-0.958 -0.958)" fill="none" stroke="#fff" stroke-linecap="round" stroke-linejoin="round" stroke-width="3"/>
  <path id="Path_38" data-name="Path 38" d="M28.008,8h0a3.36,3.36,0,0,1-3.361,3.361h-.84a2.518,2.518,0,0,0-2.521,2.521v.84A1.686,1.686,0,0,1,19.6,16.4h0a1.686,1.686,0,0,0-1.681,1.681v1.681a3.36,3.36,0,0,0,3.361,3.361h3.361a3.36,3.36,0,0,1,3.361,3.361h0a3.36,3.36,0,0,0,3.361,3.361H33.05M19.6,36.57v-4.2a2.539,2.539,0,0,0-2.546-2.521h0a2.5,2.5,0,0,1-2.5-2.479h0A2.459,2.459,0,0,0,14,25.806L7,17.243" transform="translate(-1.118 -1.278)" fill="none" stroke="#fff" stroke-linecap="round" stroke-linejoin="round" stroke-width="3"/>
  <path id="Path_39" data-name="Path 39" d="M0,0H40.335V40.335H0Z" fill="none"/>
</svg>
