<svg xmlns="http://www.w3.org/2000/svg" width="47.189" height="50.067" viewBox="0 0 47.189 50.067">
  <path id="obejctive2-icon" d="M52,23.387a12.58,12.58,0,0,0-8.433,0c-.89.377-1.446.834-1.446,1.279s.552.9,1.446,1.279a12.58,12.58,0,0,0,8.433,0c.893-.377,1.446-.834,1.446-1.279S52.891,23.767,52,23.387ZM42.119,33.594V35.04c0,.445.552.9,1.446,1.279a12.589,12.589,0,0,0,8.433,0c.893-.377,1.446-.834,1.446-1.279V33.594a5.98,5.98,0,0,1-.929.486,13.791,13.791,0,0,1-9.464,0,5.987,5.987,0,0,1-.93-.486Zm0-3.458v1.444c0,.445.552.9,1.446,1.279a12.58,12.58,0,0,0,8.433,0c.893-.377,1.446-.834,1.446-1.279V30.137a5.98,5.98,0,0,1-.929.486,13.8,13.8,0,0,1-9.464,0,5.987,5.987,0,0,1-.93-.486Zm0-3.458v1.446c0,.445.552.9,1.446,1.279A12.544,12.544,0,0,0,52,29.4c.893-.377,1.446-.834,1.446-1.279V26.673a5.981,5.981,0,0,1-.929.486,13.8,13.8,0,0,1-9.464,0,5.988,5.988,0,0,1-.93-.486ZM46.25,21.4a11.293,11.293,0,0,0-3.2.76c-1.4.59-2.262,1.47-2.262,2.5V35.04c0,1.03.864,1.91,2.262,2.5a11.293,11.293,0,0,0,3.2.761v8.351H15.683V6.335H39.06v6.521a.668.668,0,0,0,.668.668H46.25V21.4Zm-.94-9.212L40.393,7.275V12.19ZM14.352,9.883V47.319a.668.668,0,0,0,.668.668h28V50.2H12.455V9.883Zm-3.227,3.531H8.919V53.732H39.486v-2.2h-27.7a.668.668,0,0,1-.668-.668V13.415Zm29.693,38.12V54.4a.668.668,0,0,1-.668.668H8.253a.668.668,0,0,1-.668-.668V12.748a.668.668,0,0,1,.668-.668h2.87V9.217a.668.668,0,0,1,.668-.668h2.559V5.668A.668.668,0,0,1,15.017,5h24.71a.664.664,0,0,1,.475.2l7.181,7.181a.664.664,0,0,1,.2.477v8.472a12.735,12.735,0,0,1,4.93.834c1.4.59,2.262,1.47,2.262,2.5V35.04c0,1.03-.864,1.91-2.262,2.5a12.548,12.548,0,0,1-4.732.838h-.2v8.941a.668.668,0,0,1-.668.668H44.356v2.883a.668.668,0,0,1-.668.668ZM27.265,17.361H40.519a.668.668,0,0,0,0-1.335H27.265a.668.668,0,1,0,0,1.335Zm-5.851,0h2.436a.668.668,0,0,0,0-1.335H21.415a.668.668,0,1,0,0,1.335Zm0,4.776H34.4a.668.668,0,0,0,0-1.335H21.415a.668.668,0,1,0,0,1.335Zm10.507,4.776H34.4a.668.668,0,1,0,0-1.335H31.921a.668.668,0,1,0,0,1.335Zm-10.507,0h7.216a.668.668,0,0,0,0-1.335H21.415a.668.668,0,1,0,0,1.335Zm0,4.776H34.4a.668.668,0,1,0,0-1.332H21.415a.668.668,0,1,0,0,1.332Zm4.45,4.776H34.4a.668.668,0,0,0,0-1.335H25.866a.668.668,0,1,0,0,1.335Zm-4.45,0h2.292a.668.668,0,0,0,0-1.335H21.415a.668.668,0,1,0,0,1.335Zm0,4.776h16.6a.668.668,0,1,0,0-1.332h-16.6a.668.668,0,1,0,0,1.332Z" transform="translate(-7.585 -5)" fill="#fff" fill-rule="evenodd"/>
</svg>
