<svg xmlns="http://www.w3.org/2000/svg" width="52.173" height="52.173" viewBox="0 0 52.173 52.173">
  <g id="objective4-icon" transform="translate(-2 -2)">
    <path id="Path_236" data-name="Path 236" d="M36.435,7.217a5.217,5.217,0,1,0-5.217,5.217A5.217,5.217,0,0,0,36.435,7.217Zm-8.7,0A3.478,3.478,0,1,1,31.217,10.7,3.478,3.478,0,0,1,27.739,7.217Z" transform="translate(-3.131)" fill="#fff"/>
    <path id="Path_237" data-name="Path 237" d="M23,19.348v5.217a2.609,2.609,0,0,0,2.609,2.609H36.043a2.609,2.609,0,0,0,2.609-2.609V19.348A4.353,4.353,0,0,0,34.3,15H34.1l-.183.091a6.932,6.932,0,0,1-6.179,0L27.553,15h-.205A4.353,4.353,0,0,0,23,19.348Zm1.739,0a2.609,2.609,0,0,1,2.423-2.6,8.7,8.7,0,0,0,7.327,0,2.609,2.609,0,0,1,2.423,2.6v5.217a.87.87,0,0,1-.87.87H25.609a.87.87,0,0,1-.87-.87Z" transform="translate(-2.74 -1.696)" fill="#fff"/>
    <path id="Path_238" data-name="Path 238" d="M52.217,35a5.217,5.217,0,1,0,5.217,5.217A5.217,5.217,0,0,0,52.217,35Zm0,8.7A3.478,3.478,0,1,1,55.7,40.217,3.478,3.478,0,0,1,52.217,43.7Z" transform="translate(-5.871 -4.305)" fill="#fff"/>
    <path id="Path_239" data-name="Path 239" d="M55.3,48H55.1l-.183.087a6.932,6.932,0,0,1-6.179,0L48.553,48h-.205A4.353,4.353,0,0,0,44,52.348v5.217a2.609,2.609,0,0,0,2.609,2.609H57.043a2.609,2.609,0,0,0,2.609-2.609V52.348A4.353,4.353,0,0,0,55.3,48Zm2.609,9.565a.87.87,0,0,1-.87.87H46.609a.87.87,0,0,1-.87-.87V52.348a2.609,2.609,0,0,1,2.423-2.6,8.7,8.7,0,0,0,7.327,0,2.609,2.609,0,0,1,2.423,2.6Z" transform="translate(-5.479 -6.001)" fill="#fff"/>
    <path id="Path_240" data-name="Path 240" d="M10.217,35a5.217,5.217,0,1,0,5.217,5.217A5.217,5.217,0,0,0,10.217,35Zm0,8.7A3.478,3.478,0,1,1,13.7,40.217,3.478,3.478,0,0,1,10.217,43.7Z" transform="translate(-0.391 -4.305)" fill="#fff"/>
    <path id="Path_241" data-name="Path 241" d="M4.609,60.174H15.043a2.609,2.609,0,0,0,2.609-2.609V52.348A4.353,4.353,0,0,0,13.3,48H13.1l-.183.087a6.932,6.932,0,0,1-6.179,0L6.553,48H6.348A4.353,4.353,0,0,0,2,52.348v5.217a2.609,2.609,0,0,0,2.609,2.609Zm-.87-7.826a2.609,2.609,0,0,1,2.423-2.6,8.7,8.7,0,0,0,7.327,0,2.609,2.609,0,0,1,2.423,2.6v5.217a.87.87,0,0,1-.87.87H4.609a.87.87,0,0,1-.87-.87Z" transform="translate(0 -6.001)" fill="#fff"/>
    <path id="Path_242" data-name="Path 242" d="M39.321,52.549a.87.87,0,0,0-1.141-.459,19.288,19.288,0,0,1-12.4.854l.814-.239a.87.87,0,0,0-.489-1.67l-3.478,1.02c-.013,0-.023.015-.035.019a.859.859,0,0,0-.224.124.767.767,0,0,0-.087.055.843.843,0,0,0-.213.3.87.87,0,0,0-.066.359,2.673,2.673,0,0,0,.087.348c.005.012,0,.026.01.038l1.739,3.328a.87.87,0,0,0,1.543-.805l-.708-1.353a20.93,20.93,0,0,0,14.19-.772.87.87,0,0,0,.461-1.143Z" transform="translate(-2.609 -6.392)" fill="#fff"/>
    <path id="Path_243" data-name="Path 243" d="M56.267,25.884a.87.87,0,0,0-1.23,0l-1.23,1.23A20.838,20.838,0,0,0,41.21,9.9a.87.87,0,1,0-.682,1.6,19.1,19.1,0,0,1,11.5,15.367l-.981-.981a.869.869,0,1,0-1.23,1.23l2.609,2.609a.87.87,0,0,0,1.231,0l2.609-2.609A.87.87,0,0,0,56.267,25.884Z" transform="translate(-4.957 -1.021)" fill="#fff"/>
    <path id="Path_244" data-name="Path 244" d="M18.928,14.872a.856.856,0,0,0,.377.087.87.87,0,0,0,.783-.493l1.739-3.629a.04.04,0,0,1,.007-.027.831.831,0,0,0,.047-.184.909.909,0,0,0,.033-.143.869.869,0,0,0-.025-.168.806.806,0,0,0-.023-.15c0-.008-.01-.013-.013-.022s0-.015,0-.022A.832.832,0,0,0,21.77,10a.876.876,0,0,0-.1-.143.817.817,0,0,0-.17-.116.77.77,0,0,0-.1-.07L17.926,8.082A.87.87,0,0,0,17.2,9.663l1.8.823A20.837,20.837,0,0,0,8,28.871a.87.87,0,1,0,1.739,0A19.1,19.1,0,0,1,19.15,12.4l-.629,1.314A.87.87,0,0,0,18.928,14.872Z" transform="translate(-0.783 -0.785)" fill="#fff"/>
  </g>
</svg>
