<svg xmlns="http://www.w3.org/2000/svg" width="47.755" height="56.742" viewBox="0 0 47.755 56.742">
  <path id="objective3-icon" d="M50.225,45.661C52.89,43.622,57.851,39.829,55.5,31.5c-1.134-4.022-1.808-6.345-3.584-11.177a3.3,3.3,0,0,0-3.762-2.328,3.23,3.23,0,0,0-2.419,3.759l1.418,8.09c-1.287-.515-2.878-.456-3.679.536a.643.643,0,0,0-.052.076,35.646,35.646,0,0,1-5.169,5.88A10.222,10.222,0,0,0,34.9,42.381a9.185,9.185,0,0,0,1.276,6.034l.061.1a8.451,8.451,0,0,1,.726,1.374,1.293,1.293,0,0,0-.537,1.348l.054.244L36.3,51.5a.665.665,0,0,0-.6.807l.893,4.047a1.769,1.769,0,0,0,1.722,1.385,1.788,1.788,0,0,0,.384-.042l11-2.44a1.769,1.769,0,0,0,1.342-2.107l-.477-2.154a.665.665,0,0,0-.7-.519l-.082.006-.465-2.1a1.281,1.281,0,0,0-.567-.809,1.362,1.362,0,0,0-.194-.1,2.441,2.441,0,0,1,.183-.5A7.382,7.382,0,0,1,50.225,45.661ZM39.157,37.306a37.408,37.408,0,0,0,5.378-6.125c.459-.506,1.817-.415,2.684.19.946.659.543,1.332.411,1.553l-2.725,4.557a.671.671,0,0,0-.088.244l-.327,2.28a.665.665,0,1,0,1.317.189l.305-2.149,2.659-4.44A2.274,2.274,0,0,0,48.7,30.97l-1.657-9.451a1.9,1.9,0,0,1,1.4-2.23,2,2,0,0,1,2.226,1.488c1.759,4.785,2.427,7.09,3.552,11.08,2.1,7.465-2.054,10.644-4.8,12.748a7.309,7.309,0,0,0-1.83,1.7,4.4,4.4,0,0,0-.417,1.233l-8.933,1.98a9.122,9.122,0,0,0-.861-1.68l-.061-.1C35.243,44.265,35.949,40.27,39.157,37.306ZM49.406,53.958l-11,2.44a.437.437,0,0,1-.329-.061.433.433,0,0,1-.192-.273l-.732-3.3,12.23-.921.353,1.592a.438.438,0,0,1-.331.52ZM37.815,51.382l-.087-.393,10.3-2.282.416,1.875Zm10.371,1.58a.664.664,0,0,1-.505.793l-1.509.334a.656.656,0,0,1-.145.016.665.665,0,0,1-.143-1.314l1.509-.334a.664.664,0,0,1,.794.505ZM28.305,48.415a9.185,9.185,0,0,0,1.276-6.034,10.222,10.222,0,0,0-3.355-6.052,35.5,35.5,0,0,1-5.169-5.88A.643.643,0,0,0,21,30.374c-.8-.992-2.392-1.051-3.679-.536l1.418-8.09a3.23,3.23,0,0,0-2.419-3.759,3.3,3.3,0,0,0-3.762,2.328C10.784,25.149,10.11,27.476,8.976,31.5c-2.349,8.334,2.612,12.127,5.277,14.165a7.382,7.382,0,0,1,1.492,1.315,2.464,2.464,0,0,1,.183.5,1.362,1.362,0,0,0-.194.1,1.281,1.281,0,0,0-.567.809l-.465,2.1-.082-.006a.666.666,0,0,0-.7.519l-.477,2.154a1.769,1.769,0,0,0,1.342,2.107l11,2.44a1.788,1.788,0,0,0,.384.042,1.769,1.769,0,0,0,1.722-1.385l.9-4.047a.665.665,0,0,0-.6-.807L28,51.485l.054-.244a1.292,1.292,0,0,0-.537-1.348,8.451,8.451,0,0,1,.726-1.374ZM15.061,44.6c-2.751-2.1-6.909-5.283-4.8-12.748,1.125-3.99,1.794-6.295,3.552-11.08a2.006,2.006,0,0,1,2.226-1.488,1.9,1.9,0,0,1,1.4,2.23L15.775,30.97a2.274,2.274,0,0,0-.068,2.636l2.656,4.443.305,2.149a.665.665,0,0,0,1.317-.189l-.324-2.283a.671.671,0,0,0-.088-.244l-2.725-4.557c-.132-.221-.534-.894.411-1.553.868-.6,2.226-.7,2.684-.19a37.5,37.5,0,0,0,5.378,6.125c3.208,2.964,3.914,6.959,1.842,10.424l-.061.1a9.122,9.122,0,0,0-.861,1.68l-8.932-1.977a4.371,4.371,0,0,0-.418-1.233A7.294,7.294,0,0,0,15.061,44.6Zm11.53,11.46a.439.439,0,0,1-.52.332l-11-2.44a.438.438,0,0,1-.332-.521l.353-1.592,12.23.921ZM16.037,50.583l.416-1.875,10.3,2.282-.087.393Zm.252,2.379a.664.664,0,0,1,.793-.505l1.509.334a.665.665,0,0,1-.139,1.315.656.656,0,0,1-.145-.016L16.8,53.756a.664.664,0,0,1-.507-.793ZM35.15,27.613a2.578,2.578,0,0,0,2.05-2.52v-.807a.666.666,0,0,0-.411-.614v-.109A2.079,2.079,0,0,1,37.8,21.741c.265-.166.521-.343.767-.528h1.775l.427.427a1.735,1.735,0,1,0,.943-.936l-.625-.625a.664.664,0,0,0-.47-.195h-.589a10.417,10.417,0,0,0,1.1-1.436h2.44a.665.665,0,0,0,0-1.33H41.837a10.487,10.487,0,0,0,.891-3.66H44.2l2.182,2.457a.666.666,0,0,0,.5.223H48.6a1.734,1.734,0,1,0,0-1.33H47.175l-2.182-2.457a.664.664,0,0,0-.5-.223H42.723a10.446,10.446,0,0,0-.238-1.634H44.62a.665.665,0,1,0,0-1.33H42.088a10.484,10.484,0,0,0-1.44-2.631h2.737a.667.667,0,0,0,.47-.195l2-2a1.736,1.736,0,1,0-.94-.941L43.109,5.2H39.461a10.489,10.489,0,0,0-14.445,0H21.369L19.562,3.394a1.734,1.734,0,1,0-.94.941l2,2a.667.667,0,0,0,.47.195h2.737a10.484,10.484,0,0,0-1.44,2.631H19.859a.665.665,0,1,0,0,1.33h2.135a10.371,10.371,0,0,0-.238,1.634H19.983a.664.664,0,0,0-.5.223L17.3,14.807H15.881a1.734,1.734,0,1,0,0,1.33H17.6a.666.666,0,0,0,.5-.223l2.182-2.457h1.47a10.493,10.493,0,0,0,.891,3.66h-1.73a.665.665,0,1,0,0,1.33h2.44a10.417,10.417,0,0,0,1.1,1.436h-.589a.664.664,0,0,0-.47.195l-.624.627a1.735,1.735,0,1,0,.94.94l.427-.427H25.91c.244.183.5.362.767.528a2.079,2.079,0,0,1,1.009,1.82v.109a.666.666,0,0,0-.411.614V25.1a2.578,2.578,0,0,0,2.05,2.52v1.561a2.013,2.013,0,0,0,2.013,2.013h1.8a2.013,2.013,0,0,0,2.013-2.013ZM42.372,21.9a.4.4,0,1,1-.4.4.4.4,0,0,1,.4-.4ZM50.2,15.069a.4.4,0,1,1-.4.4.4.4,0,0,1,.4-.4Zm-3.68-12.74a.4.4,0,1,1-.4.4A.4.4,0,0,1,46.518,2.329Zm-28.555.808a.4.4,0,1,1,.4-.4A.4.4,0,0,1,17.963,3.137ZM14.28,15.876a.4.4,0,1,1,.4-.4A.4.4,0,0,1,14.28,15.876Zm7.825,6.833a.4.4,0,1,1,.286-.118.4.4,0,0,1-.286.118Zm5.278-2.1a9.2,9.2,0,0,1-3.038-3.092.671.671,0,0,0-.076-.132,9.177,9.177,0,1,1,15.936,0,.685.685,0,0,0-.075.13,9.186,9.186,0,0,1-3.038,3.093,3.412,3.412,0,0,0-1.634,2.948v.061H29.018v-.061a3.413,3.413,0,0,0-1.634-2.946Zm1.224,4.478V24.95h7.26v.142a1.245,1.245,0,0,1-1.243,1.243H29.851a1.245,1.245,0,0,1-1.243-1.242Zm4.53,4.763h-1.8a.682.682,0,0,1-.681-.681V27.666H33.82v1.507A.682.682,0,0,1,33.138,29.855Z" transform="translate(-8.362 -0.997)" fill="#fff"/>
</svg>
