<svg xmlns="http://www.w3.org/2000/svg" width="49.911" height="56.544" viewBox="0 0 49.911 56.544">
  <g id="objective1-icon" transform="translate(-65.287 -31.849)">
    <path id="Path_246" data-name="Path 246" d="M129.689,126.03a2.106,2.106,0,0,1-1.355-2.323c.053-.766.01-1.54.01-2.4-.387,0-.729.008-1.071,0a1.958,1.958,0,0,1-2.089-2.119c0-.642.021-1.285.073-1.925a1.816,1.816,0,0,1,.871-1.335.892.892,0,0,0,.327-.6c.04-.716-.012-1.436.026-2.152a.637.637,0,0,0-.457-.7,18.4,18.4,0,0,1-8.068-7.209,19.012,19.012,0,0,1,1.412-21.815A18.618,18.618,0,0,1,139.938,77.5a.969.969,0,0,0,.925-.042,1.188,1.188,0,0,1,1.439.161,11.285,11.285,0,0,1,.913.88.554.554,0,0,0,.714.184c.338-.137.364-.35.355-.641-.011-.386-.02-.774,0-1.159a1.385,1.385,0,0,1,1.353-1.339q1.545-.04,3.092,0a1.324,1.324,0,0,1,1.311,1.244,9.621,9.621,0,0,1,.029,1.213c0,.31.014.541.378.689.348.141.508-.013.7-.219.228-.24.457-.481.7-.7a1.4,1.4,0,0,1,2.11.013c.69.663,1.362,1.345,2.023,2.038A1.387,1.387,0,0,1,156,81.81c-.245.274-.506.536-.776.786a.553.553,0,0,0-.2.711.572.572,0,0,0,.673.4,9.9,9.9,0,0,1,1.049,0,1.4,1.4,0,0,1,1.425,1.439c.014.975.016,1.951,0,2.927a1.386,1.386,0,0,1-1.391,1.409c-.349.014-.7.013-1.049,0-.3-.009-.541,0-.691.366a.583.583,0,0,0,.2.757,9.91,9.91,0,0,1,.81.829,1.373,1.373,0,0,1-.03,1.9c-.683.721-1.37,1.444-2.112,2.1a5.618,5.618,0,0,1-1.269.619c-.018.18-.057.521-.087.863-.023.256-.02.516-.057.77-.093.633-.463.952-.98.867a.9.9,0,0,1-.692-1.086c.057-.659.107-1.32.144-1.981.019-.344,0-.689,0-1.033-.794.025-.885.119-.893.782a10.545,10.545,0,0,1-.042,1.212,1.315,1.315,0,0,1-1.3,1.187q-1.546.03-3.092,0a1.386,1.386,0,0,1-1.35-1.339,10.988,10.988,0,0,1,0-1.214.5.5,0,0,0-.359-.583.514.514,0,0,0-.673.14,8.886,8.886,0,0,1-.861.856,1.3,1.3,0,0,1-1.851.022c-.8-.733-1.561-1.51-2.294-2.309a1.353,1.353,0,0,1,.058-1.775,9.508,9.508,0,0,1,.89-.9.511.511,0,0,0,.12-.677.5.5,0,0,0-.568-.38,10.646,10.646,0,0,1-1.159,0,1.357,1.357,0,0,1-1.387-1.4q-.025-1.491,0-2.982a1.358,1.358,0,0,1,1.347-1.387c.349-.021.7-.015,1.049-.009.319.006.579.013.734-.388.143-.37-.017-.54-.236-.749-.24-.229-.475-.462-.7-.706a1.416,1.416,0,0,1,.007-2.072c.225-.24.481-.452.723-.677l-.02-.178c-.933-.2-1.858-.472-2.8-.6a16.7,16.7,0,0,0-8.658,1.029,16.981,16.981,0,0,0-8.9,8.1,16.731,16.731,0,0,0-1.858,9.229,16.936,16.936,0,0,0,5.724,11.565,15.961,15.961,0,0,0,4.688,2.958,1.2,1.2,0,0,1,.848,1.3c-.039,1.024-.01,2.051-.01,3.1h1.076V109.78c-.129-.027-.27-.058-.411-.087a1.319,1.319,0,0,1-1.109-1.2c-.039-.807-.044-1.62,0-2.427a1.3,1.3,0,0,1,1.3-1.248c.735-.028,1.473-.029,2.208,0a1.375,1.375,0,0,1,1.345,1.342c.028.735.026,1.473,0,2.208a1.4,1.4,0,0,1-1.182,1.332c-.124.025-.247.051-.4.082v5.829h2.476v-.59q0-3.037,0-6.075c0-.7.3-1.082.82-1.085s.837.4.838,1.076c0,2.208,0,4.417,0,6.669h1.645c.011-.131.035-.287.035-.444,0-1.859.015-3.719-.013-5.577a1.317,1.317,0,0,0-.324-.827c-1.938-1.992-3.9-3.959-5.859-5.933a1.035,1.035,0,0,0-.128-.1c-1.321.6-1.522.559-2.574-.5-.324-.327-.656-.646-.967-.985a1.387,1.387,0,0,1-.01-1.985c.45-.486.919-.956,1.4-1.413a1.409,1.409,0,0,1,2.185.019c.347.329.676.677,1.013,1.017.962.971,1,1.507.131,2.606.131.138.263.285.4.426,1.842,1.854,3.676,3.717,5.534,5.556a2.927,2.927,0,0,1,.918,2.218c-.015,1.767,0,3.534,0,5.3v.629H139.6q0-4.58,0-9.176c-1.315-.277-1.6-.643-1.6-2.036,0-.479-.011-.958,0-1.436a1.469,1.469,0,0,1,1.53-1.534c.625-.019,1.252-.022,1.877,0a1.457,1.457,0,0,1,1.5,1.505c.021.533.006,1.067,0,1.6,0,1.224-.34,1.64-1.557,1.891V110.9c.943-.6,1.832-1.088,2.646-1.684a16.852,16.852,0,0,0,5.134-6.11c.4-.8.822-1.032,1.334-.786s.56.744.134,1.581a18.48,18.48,0,0,1-8.759,8.54.735.735,0,0,0-.523.83,9.62,9.62,0,0,1,.006,1.324,1.665,1.665,0,0,0,.643,1.637c.993.76.952,3.7.012,4.53a2.66,2.66,0,0,1-1.176.513,6.833,6.833,0,0,1-1.337.019c0,.861-.031,1.647.008,2.429a2.12,2.12,0,0,1-1.39,2.309h-8.394Zm8.191-38.189c1.241-.082,2.349-.1,2.978,1.3.676,1.511-.156,2.349-1.123,3.205l1.772,1.717c.789-.873,1.54-1.76,3.045-1.141s1.444,1.8,1.415,3.036h2.413c-.057-1.267-.051-2.4,1.407-3.026,1.513-.654,2.276.284,3.042,1.085l1.761-1.7c-.886-.82-1.738-1.6-1.134-3.088s1.787-1.465,3.02-1.409V85.355c-1.276.1-2.4.067-3.016-1.39-.634-1.5.271-2.287,1.174-3.138l-1.757-1.715c-.81.871-1.559,1.786-3.066,1.156-1.484-.621-1.5-1.772-1.428-3.029h-2.473c.272,1.523-.085,2.65-1.71,3.156-1.372.427-1.957-.581-2.653-1.2l-1.779,1.661c.725.781,1.663,1.4,1.252,2.76-.5,1.642-1.654,1.944-3.14,1.74v2.49Zm-3.991,31.793c2.154,0,4.307-.009,6.461.007.431,0,.606-.149.588-.575s-.005-.847,0-1.27c0-.341-.158-.5-.509-.5q-6.516.007-13.032,0c-.386,0-.529.168-.52.532.01.4.022.811,0,1.214-.028.459.157.6.614.6C129.619,119.623,131.754,119.634,133.889,119.634Zm3.837,3.991h-7.678q-.065.748.62.75h6.454q.684,0,.6-.75Zm-7.71-1.746h7.724v-.539h-7.7Zm.33-21.617-1.021-1.045-1.041,1.015,1.045,1.019,1.017-.989Zm.5,6.256h-1.463V108h1.463Zm10.32-1.824v-1.515h-1.431v1.515Z" transform="translate(-42.986 -37.637)" fill="#fff"/>
    <path id="Path_247" data-name="Path 247" d="M238.62,198.051c0,1.519,0,3.025,0,4.531,0,.184.01.369-.006.552a.852.852,0,0,1-.814.82.809.809,0,0,1-.83-.845c-.016-1.453-.008-2.906-.01-4.359,0-.219,0-.439,0-.677-.166-.037-.306-.068-.445-.1a1.43,1.43,0,0,1-1.181-1.4c-.024-.68-.023-1.362,0-2.041a1.42,1.42,0,0,1,1.522-1.457c.644-.006,1.288-.008,1.931,0a1.34,1.34,0,0,1,1.416,1.255,15.4,15.4,0,0,1,0,2.368c-.072.905-.724,1.255-1.587,1.353Zm-1.564-3.3v1.52H238.5v-1.52Z" transform="translate(-146.509 -138.919)" fill="#fff"/>
    <path id="Path_248" data-name="Path 248" d="M182.837,179.545c.257,0,.515,0,.772,0a1.466,1.466,0,0,1,1.632,1.631c.007.588.014,1.177,0,1.765a1.472,1.472,0,0,1-1.568,1.547q-.882.017-1.765,0a1.472,1.472,0,0,1-1.574-1.541q-.025-.937,0-1.875a1.44,1.44,0,0,1,1.568-1.527c.313,0,.625,0,.938,0Zm.67,1.692h-1.442v1.515h1.442Z" transform="translate(-99.12 -127.265)" fill="#fff"/>
    <path id="Path_249" data-name="Path 249" d="M210.24,138.482c-.349,0-.7.01-1.047,0a1.343,1.343,0,0,1-1.362-1.3c-.037-.77-.033-1.543,0-2.313a1.274,1.274,0,0,1,1.162-1.261,16.634,16.634,0,0,1,2.473-.007,1.36,1.36,0,0,1,1.227,1.4c.018.679.016,1.36,0,2.039a1.413,1.413,0,0,1-1.463,1.454c-.331.009-.661,0-.992,0v0Zm.752-1.688v-1.5h-1.464v1.5Z" transform="translate(-122.803 -87.635)" fill="#fff"/>
    <path id="Path_250" data-name="Path 250" d="M68.436,199.285c-.867-.1-1.58-.161-2.286-.267-.587-.089-.925-.5-.854-.953a.91.91,0,0,1,1.123-.71c.709.092,1.424.148,2.124.284a.789.789,0,0,1,.472,1.339,1.863,1.863,0,0,1-.579.307Z" transform="translate(0 -142.602)" fill="#fff"/>
    <path id="Path_251" data-name="Path 251" d="M194,40.931a.884.884,0,0,1,.638-.847.7.7,0,0,1,.926.383,21.08,21.08,0,0,1,.776,2.573.811.811,0,0,1-1.514.446C194.516,42.649,194.275,41.785,194,40.931Z" transform="translate(-110.912 -7.055)" fill="#fff"/>
    <path id="Path_252" data-name="Path 252" d="M149.125,65.889c-.135.156-.29.483-.533.572a.92.92,0,0,1-.831-.13,17.81,17.81,0,0,1-1.53-2.336c-.1-.179.119-.629.314-.839a.618.618,0,0,1,.94.01c.575.776,1.072,1.612,1.6,2.426a1.186,1.186,0,0,1,.045.3Z" transform="translate(-69.726 -26.794)" fill="#fff"/>
    <path id="Path_253" data-name="Path 253" d="M109.657,101.411a.81.81,0,0,1-1.2.787,20.213,20.213,0,0,1-2.015-1.691.714.714,0,0,1-.011-1,.7.7,0,0,1,.975-.231c.735.539,1.415,1.154,2.1,1.758.108.095.123.295.155.38Z" transform="translate(-35.277 -57.997)" fill="#fff"/>
    <path id="Path_254" data-name="Path 254" d="M79.327,144.885c.271.075.4.1.515.146.674.285,1.353.56,2.016.87a.818.818,0,0,1,.486,1.123.831.831,0,0,1-1.118.411c-.7-.273-1.385-.579-2.064-.9a.744.744,0,0,1-.453-.994C78.827,145.265,79.143,145.072,79.327,144.885Z" transform="translate(-11.51 -97.4)" fill="#fff"/>
    <path id="Path_255" data-name="Path 255" d="M70.329,248.185c.627,0,.952.2,1.036.664a.765.765,0,0,1-.616.956,23.689,23.689,0,0,1-2.374.429.818.818,0,0,1-.3-1.6c.8-.195,1.611-.324,2.258-.45Z" transform="translate(-1.889 -186.411)" fill="#fff"/>
    <path id="Path_256" data-name="Path 256" d="M88.586,295.439a1.766,1.766,0,0,1-.452.553c-.643.382-1.32.711-2,1.03a.821.821,0,0,1-1.143-.318.845.845,0,0,1,.4-1.16c.64-.352,1.291-.688,1.955-.992C87.974,294.267,88.566,294.617,88.586,295.439Z" transform="translate(-16.897 -226.28)" fill="#fff"/>
    <path id="Path_257" data-name="Path 257" d="M248.827,33.856c0,.367.015.735,0,1.1a.843.843,0,0,1-.83.854.823.823,0,0,1-.816-.857q-.026-1.128,0-2.257a.806.806,0,0,1,.819-.848.842.842,0,0,1,.83.851c0,.037,0,.073,0,.11q0,.523,0,1.046Z" transform="translate(-156.72 0)" fill="#fff"/>
    <path id="Path_258" data-name="Path 258" d="M117.145,337.25c-.184-.15-.5-.287-.588-.512a1,1,0,0,1,.07-.855,19.837,19.837,0,0,1,1.862-1.781.717.717,0,0,1,1,.086.681.681,0,0,1,.137.988c-.636.677-1.337,1.295-2.022,1.925-.084.077-.236.08-.461.15Z" transform="translate(-44.125 -260.298)" fill="#fff"/>
    <path id="Path_259" data-name="Path 259" d="M311.086,113.6c.521.1,1.046.173,1.561.3.633.15.906.541.779,1.049s-.544.744-1.18.564a4.144,4.144,0,0,0-2.439.015,4.082,4.082,0,0,0,1.214,7.969,4.021,4.021,0,0,0,3.957-3.455,6.194,6.194,0,0,0-.081-1.74c-.1-.685.053-1.106.577-1.23s.878.156,1.052.844a5.5,5.5,0,0,1-1.589,5.644,5.4,5.4,0,0,1-5.863,1.252,5.765,5.765,0,0,1-3.723-6.206,5.839,5.839,0,0,1,4.9-4.911,6.067,6.067,0,0,1,.826-.005l.011-.086Z" transform="translate(-206.826 -70.446)" fill="#fff"/>
    <path id="Path_260" data-name="Path 260" d="M328.495,140.335a2.906,2.906,0,1,1,2.884-2.943A2.91,2.91,0,0,1,328.495,140.335Zm1.174-2.915a1.2,1.2,0,0,0-1.226-1.211,1.225,1.225,0,0,0,.023,2.449,1.2,1.2,0,0,0,1.2-1.238Z" transform="translate(-224.277 -88.472)" fill="#fff"/>
  </g>
</svg>
